<svg width="60" height="60" viewBox="0 0 60 60" fill="none" xmlns="http://www.w3.org/2000/svg">
<g opacity="0.1">
<path fill-rule="evenodd" clip-rule="evenodd" d="M43.1351 35.7703C44.6548 37.8994 47.5272 40.1913 51.4377 42.0993C52.4539 42.5952 51.9955 44.132 50.8736 43.9901C42.6574 42.9509 37.3319 39.3524 34.4238 34.0012C33.3422 32.0109 32.6627 29.8924 32.3008 27.7299C32.0622 26.304 31.9991 25.234 31.9991 23.998C31.9991 18.4752 36.4763 13.998 41.9991 13.998C47.522 13.998 51.9991 18.4752 51.9991 23.998C51.9991 29.5209 47.4506 34.0012 42.2235 34.0012C42.4993 34.7583 42.5655 34.9723 43.1351 35.7703ZM21.1351 35.7703C22.6548 37.8994 25.5272 40.1913 29.4377 42.0993C30.4539 42.5952 29.9955 44.132 28.8736 43.9901C20.6574 42.9509 15.3319 39.3524 12.4238 34.0012C11.3422 32.0109 10.6627 29.8924 10.3008 27.7299C10.0622 26.304 9.99914 25.234 9.99914 23.998C9.99914 18.4752 14.4763 13.998 19.9991 13.998C25.522 13.998 29.9991 18.4752 29.9991 23.998C29.9991 29.5209 25.4506 34.0012 20.2235 34.0012C20.4993 34.7583 20.5655 34.9723 21.1351 35.7703Z" fill="black"/>
</g>
</svg>
