<svg width="60" height="60" viewBox="0 0 60 60" fill="none" xmlns="http://www.w3.org/2000/svg">
<g opacity="0.1">
<path fill-rule="evenodd" clip-rule="evenodd" d="M16.8649 35.7703C15.3452 37.8994 12.4728 40.1913 8.56235 42.0993C7.54612 42.5952 8.00454 44.132 9.12635 43.9901C17.3426 42.9509 22.6681 39.3524 25.5762 34.0012C26.6578 32.0109 27.3373 29.8924 27.6992 27.7299C27.9378 26.304 28.0009 25.234 28.0009 23.998C28.0009 18.4752 23.5237 13.998 18.0009 13.998C12.478 13.998 8.00086 18.4752 8.00086 23.998C8.00086 29.5209 12.5494 34.0012 17.7765 34.0012C17.5007 34.7583 17.4345 34.9723 16.8649 35.7703ZM38.8649 35.7703C37.3452 37.8994 34.4728 40.1913 30.5623 42.0993C29.5461 42.5952 30.0045 44.132 31.1264 43.9901C39.3426 42.9509 44.6681 39.3524 47.5762 34.0012C48.6578 32.0109 49.3373 29.8924 49.6992 27.7299C49.9378 26.304 50.0009 25.234 50.0009 23.998C50.0009 18.4752 45.5237 13.998 40.0009 13.998C34.478 13.998 30.0009 18.4752 30.0009 23.998C30.0009 29.5209 34.5494 34.0012 39.7765 34.0012C39.5007 34.7583 39.4345 34.9723 38.8649 35.7703Z" fill="black"/>
</g>
</svg>
